<svg width="30" height="30" viewBox="0 0 30 30" fill="none" xmlns="http://www.w3.org/2000/svg">
<path fill-rule="evenodd" clip-rule="evenodd" d="M15 2.5C9.47715 2.5 5 7.50323 5 13.125C5 18.7027 8.19166 24.7655 13.1713 27.0931C14.3322 27.6356 15.6678 27.6356 16.8287 27.0931C21.8083 24.7655 25 18.7027 25 13.125C25 7.50323 20.5228 2.5 15 2.5ZM15 15C16.3807 15 17.5 13.8807 17.5 12.5C17.5 11.1193 16.3807 10 15 10C13.6193 10 12.5 11.1193 12.5 12.5C12.5 13.8807 13.6193 15 15 15Z" fill="#FF8307"/>
</svg>
