<svg width="26" height="26" viewBox="0 0 26 26" fill="none" xmlns="http://www.w3.org/2000/svg">
<path d="M9.44145 4.76047C11.0248 1.92016 11.8164 0.5 13 0.5C14.1836 0.5 14.9752 1.92016 16.5585 4.76047L16.9682 5.49529C17.4181 6.30242 17.6431 6.70598 17.9938 6.97226C18.3446 7.23853 18.7814 7.33738 19.6551 7.53506L20.4506 7.71504C23.5252 8.41069 25.0625 8.75852 25.4282 9.93466C25.794 11.1108 24.7459 12.3363 22.6499 14.7874L22.1076 15.4215C21.512 16.118 21.2142 16.4663 21.0802 16.8971C20.9462 17.328 20.9912 17.7926 21.0813 18.7219L21.1633 19.568C21.4802 22.8382 21.6386 24.4734 20.6811 25.2003C19.7235 25.9272 18.2842 25.2644 15.4054 23.939L14.6606 23.596C13.8426 23.2194 13.4336 23.0311 13 23.0311C12.5664 23.0311 12.1574 23.2194 11.3394 23.596L10.5946 23.939C7.71584 25.2644 6.27647 25.9272 5.31894 25.2003C4.3614 24.4734 4.51985 22.8382 4.83675 19.568L4.91873 18.7219C5.00878 17.7926 5.05381 17.328 4.91983 16.8971C4.78585 16.4663 4.48803 16.118 3.8924 15.4215L3.35012 14.7874C1.25406 12.3363 0.206031 11.1108 0.571776 9.93466C0.937522 8.75852 2.47482 8.41069 5.54942 7.71504L6.34486 7.53506C7.21856 7.33738 7.65542 7.23853 8.00618 6.97226C8.35694 6.70598 8.58191 6.30242 9.03183 5.49529L9.44145 4.76047Z" fill="#FF8307"/>
</svg>
